{"title":"Sinister 2012 DVDRip 400MB x264 AAC - ViZNU [P2PDL]","uid":7936936,"size":432414747,"categoryP":"video","categoryS":"movies","magnet":"?xt=urn:btih:1f043da40b26bbe84f5c5b1747d91d04d2bd3b18&amp;dn=Sinister+2012+DVDRip+400MB+x264+AAC+-+ViZNU+%5BP2PDL%5D&amp;tr=udp%3A%2F%2Ftracker.openbittorrent.com%3A80&amp;tr=udp%3A%2F%2Fopen.demonii.com%3A1337&amp;tr=udp%3A%2F%2Ftracker.coppersurfer.tk%3A6969&amp;tr=udp%3A%2F%2Fexodus.desync.com%3A6969","seeders":0,"leechers":0,"uploader":"ValidusVyto","files":-1,"time":1355882519,"description":"Sinister 2012 DVDRip 400MB x264 AAC - ViZNU [P2PDL]\n\n\t\t\t\t\t\nGenre: Horror | Mystery | Thriller \nPlot: A true-crime writer finds a cache of 8mm &quot;snuff&quot; films that suggest the murder he is currently\nresearching is the work of a serial killer whose career dates back to the 1960s.\nDirector: Scott Derrickson\nStars: Ethan Hawke, Juliet Rylance and James Ransone.\nRated: R for disturbing violent images and some terror. &lt;a href=&quot;\nhttp://cinemahouse.in/movie/250/Sinister&quot; rel=&quot;nofollow&quot; target=&quot;_NEW&quot;&gt;\nhttp://cinemahouse.in/movie/250/Sinister&lt;/a&gt;\n\nGeneral\nMovie name                     : Sinister 2012\nFormat                         : MPEG-4\nFormat profile                 : Base Media\nCodec ID                       : isom\nFile size                      : 402 MiB\nDuration                       : 1h 45mn\nOverall bit rate mode          : Variable\nOverall bit rate               : 534 Kbps\nSource                         : PAL.DVDR\n\nVideo\nID                             : 1\nFormat                         : AVC\nFormat/Info                    : Advanced Video Codec\nDuration                       : 1h 45mn\nBit rate                       : 491 Kbps\nWidth                          : 720 pixels\nHeight                         : 304 pixels\nDisplay aspect ratio           : 2.35:1\nFrame rate mode                : Constant\nFrame rate                     : 25.000 fps\nStream size                    : 369 MiB (92%)\nWriting library                : x264\n\nAudio\nID                             : 2\nFormat                         : AAC\nFormat/Info                    : Advanced Audio Codec\nCodec ID                       : 40\nDuration                       : 1h 45mn\nBit rate mode                  : Variable\nBit rate                       : 40.0 Kbps\nChannel(s)                     : 2 channels\nChannel positions              : Front: L R\nSampling rate                  : 44.1 KHz / 22.05 KHz\nStream size                    : 30.1 MiB (7%)\n\nSubtitle                       : Yes (English)\n\n\nScreens:\n &lt;a href=&quot;\nhttp://www.shotpix.com/images/03192170417739997555.png&quot; rel=&quot;nofollow&quot; target=&quot;_NEW&quot;&gt;\nhttp://www.shotpix.com/images/03192170417739997555.png&lt;/a&gt; &lt;a href=&quot;\nhttp://www.shotpix.com/images/79946259984924278526.png&quot; rel=&quot;nofollow&quot; target=&quot;_NEW&quot;&gt;\nhttp://www.shotpix.com/images/79946259984924278526.png&lt;/a&gt; &lt;a href=&quot;\nhttp://www.shotpix.com/images/07612240591877348260.png&quot; rel=&quot;nofollow&quot; target=&quot;_NEW&quot;&gt;\nhttp://www.shotpix.com/images/07612240591877348260.png&lt;/a&gt; &lt;a href=&quot;\nhttp://www.shotpix.com/images/77564724975584691458.png&quot; rel=&quot;nofollow&quot; target=&quot;_NEW&quot;&gt;\nhttp://www.shotpix.com/images/77564724975584691458.png&lt;/a&gt; &lt;a href=&quot;\nhttp://www.shotpix.com/images/05844217889099535241.png&quot; rel=&quot;nofollow&quot; target=&quot;_NEW&quot;&gt;\nhttp://www.shotpix.com/images/05844217889099535241.png&lt;/a&gt; &lt;a href=&quot;\nhttp://www.shotpix.com/images/61453386918931398921.png&quot; rel=&quot;nofollow&quot; target=&quot;_NEW&quot;&gt;\nhttp://www.shotpix.com/images/61453386918931398921.png&lt;/a&gt;\n\n----------------------------------------------------------------------------------------------------\n\nRecommend to you to use latest version of VLC player. Install K-Lite Codec Pack or shark007 codecs\nin case of any kind of problem in playback (For non-VLC Media Player users). Alternatively, install\nCore AVC codecs, the fastest decoder that there is coupled with Community Center Codec Pack and play\non Windows Media Player Classic. Check sample to be sure. Enjoy!\n\nGreets to: Vitamin_X, a2zRG, srkfan, staff members at ExtraTorrent, TPB,KAT, 1337x, PublicHD,\nAhashare, BTScene, TorrentMafia, P2PDL, and all others.\n\nEncoder Notes: Looking For Early Access To Anything You Can Provide DVDScr, R5, DVDR, BluRay, Direct\nAudio, Early Music Releases, Seedboxes, Dedicated Servers anything u can provide, Advance / Promo CDs/\nDVDs. If You Got anything to offer contact me at &quot;&lt;a class=&quot;__cf_email__&quot; href=&quot;/cdn-cgi/l/email-protection&quot; data-cfemail=&quot;67171500270f12140f4904080a&quot;&gt;[email&amp;#160;protected]&lt;/a&gt;&lt;script cf-hash='f9e31' type=&quot;text/javascript&quot;&gt;\n/* &lt;![CDATA[ */!function(){try{var t=&quot;currentScript&quot;in document?document.currentScript:function(){for(var t=document.getElementsByTagName(&quot;script&quot;),e=t.length;e--;)if(t[e].getAttribute(&quot;cf-hash&quot;))return t[e]}();if(t&amp;&amp;t.previousSibling){var e,r,n,i,c=t.previousSibling,a=c.getAttribute(&quot;data-cfemail&quot;);if(a){for(e=&quot;&quot;,r=parseInt(a.substr(0,2),16),n=2;a.length-n;n+=2)i=parseInt(a.substr(n,2),16)^r,e+=String.fromCharCode(i);e=document.createTextNode(e),c.parentNode.replaceChild(e,c)}}}catch(u){}}();/* ]]&gt; */&lt;/script&gt;&quot;.\n\nFacebook Fan Page: www . facebook . com / p2pdl","torrent":{"xt":"urn:btih:1f043da40b26bbe84f5c5b1747d91d04d2bd3b18","amp;dn":"Sinister+2012+DVDRip+400MB+x264+AAC+-+ViZNU+%5BP2PDL%5D","amp;tr":["udp%3A%2F%2Ftracker.openbittorrent.com%3A80","udp%3A%2F%2Fopen.demonii.com%3A1337","udp%3A%2F%2Ftracker.coppersurfer.tk%3A6969","udp%3A%2F%2Fexodus.desync.com%3A6969"],"infoHash":"1f043da40b26bbe84f5c5b1747d91d04d2bd3b18","infoHashBuffer":{"type":"Buffer","data":[31,4,61,164,11,38,187,232,79,92,91,23,71,217,29,4,210,189,59,24]},"announce":[],"urlList":[]}}